<?xml version="1.0" encoding="UTF-8"?>
<!-- Created with Inkscape (http://www.inkscape.org/) -->
<svg width="210mm" height="297mm" version="1.1" viewBox="0 0 210 297" xmlns="http://www.w3.org/2000/svg">
 <g>
  <g>
   <path d="m92.502 167.41-15.07 9.5802-13.826 1.1396-2.7652-3.9886-18.25-0.56983-5.5304-5.698-8.8486 0.56979-7.1895-7.9772v-6.8376l-11.061-6.2678 2.7652-19.373 9.9547-3.9886 11.061-0.56981 4.9774-3.9886-2.2122-5.698-12.167-0.56979-3.8713-6.8376 1.6591-17.094 7.1895-6.2678 1.6591-6.2678 14.379-3.4188 20.462 1.1396 11.061-6.2678-2.7652-9.1168 2.2122-8.547-1.6591-10.256 5.5304-9.1168 10.508-2.849 12.167-9.1168 15.501 3.8435 3.5512 8.7699 15.643 7.3065 5.096 12.212-5.7042 15.307 5.005 12.212h22.054l16.279 7.5862 0.55304 18.803 4.4243 10.256-0.55303 6.8376-7.7426 5.698 6.6365 6.8376 13.826 7.4074 1.1061 10.826-9.4017 22.222-9.9547 3.9886-19.909-1.7094-8.2956-7.4074h-14.932l-12.251-6.002" fill="#fff9f9"/>
   <g fill="#ffd5d5">
    <path d="m63.606 178.13-2.7652-3.9886-18.25-0.56983-5.5304-5.698-8.8486 0.56979-7.1895-7.9772v-6.8376l-11.061-6.2678 2.7652-19.373 5.8837 8.3785-0.39108 4.693 5.8662 1.5643 7.0395 10.559 8.6038 1.9554 5.8662 6.6484 12.906 1.9554 6.4062 8.433 12.525 4.8159-13.826 1.1396"/>
    <path d="m30.976 76.709 6.7964 10.776-1.5643 9.777 7.4305 5.8662 2.3465 5.0841 11.341 7.0395-6.6484 1.5643-14.172-3.0695-12.167-0.56979-3.8713-6.8376 1.6591-17.094 7.1895-6.2678z"/>
    <path d="m102.87 19.159-2.1346 10.446-9.386 10.95 1.1732 10.559-3.1286 5.0841 4.693 9.777 1.5643 8.2127-18.774-6.0258-2.7652-9.1168 2.2122-8.547-1.6591-10.256 5.5304-9.1168 10.508-2.849 12.167-9.1168"/>
    <path d="m180.85 105.2 4.4243 10.256-0.55303 6.8376-7.7426 5.698-16.406 0.94796-9.777-5.0841 13.297-2.3465 7.0395-4.693h4.693z"/>
    <path d="m150.99 170.16 10.369-1.3271 12.906 2.3465 3.5197-10.559 5.8662-3.5197 4.693-7.8216 9.102-7.0391 1.1061 10.826-9.4017 22.222-9.9547 3.9886-19.909-1.7094-8.2956-7.4074"/>
   </g>
   <g>
    <path d="m18.47 224.27c-2.2712 0.6598-1.4469 3.4316 0.97183 2.4853 46.172-13.003 75.64-27.514 91.4-58.074 0.80528-1.7812 2.7644-1.9199 3.5029-0.10606 13.801 40.992 44.213 52.742 70.312 60.365 2.4957 0.93608 6.7397 1.6728 4.6019-3.9411l-8.0605-21.168c-0.95308-2.0468-2.2148-3.7427-5.4523-3.6057-23.46-1.0366-41.306-18.219-54.564-34.729-1.6822-2.2238-0.0768-4.1956 2.6228-3.7466l45.244 3.3319c2.8632 0.48192 6.1165-0.26463 2.4802-3.0943l-11.932-8.2352c-3.6995-3.0212-5.1885-2.9436-8.4185-3.2859l-28.461-2.2136c-3.2188-0.20064-3.2171-2.4137-3.1918-4.7625 0.13283-1.7641 0.17229-2.8649 0.39777-4.9226 0.60397-3.075 2.52-3.0554 4.167-2.9767l27.791 2.5582c2.9287 0.61925 3.2656-1.4109 1.2891-2.9384l-9.1714-7.0894c-1.8342-1.6305-2.8979-1.8591-5.3239-2.0497l-11.934-1.0262c-2.4737-0.16522-3.3758-0.85434-3.2179-3.5651 0.13177-1.2389 0.25922-2.5312 0.37555-3.7784 0.2636-2.4008 1.4838-2.8148 3.4237-2.5864l37.42 2.9672c2.062 0.29289 3.0651-1.298 0.99323-2.7112l-10.774-7.1337c-3.9688-3.0438-5.2016-2.8964-8.8834-3.449l-17.03-2.428c-3.8133-0.55377-4.4826-3.0942-4.4208-5.7579 0.29422-6.1896 0.49569-11.511 0.21966-19.457-0.2014-2.3251-0.11891-8.2481-3.8116-12.782l-12.731-18.476c-4.0178-6.28-9.5845-3.06-9.0101 2.6907 0.97227 17.827 2.0835 33.117 2.3002 46.99 0.21651 2.851-1.9784 2.9383-3.0821 2.8022l-46.762-7.0079c-1.7226-0.45198-3.3872 0.98947-1.3305 2.7492l18.581 13.484c2.3115 1.9707 4.2345 2.8456 7.786 3.1168l21.08 1.6572c2.4024 0.22302 2.9804 1.5717 3.0992 3.5345-0.0355 1.0668-0.0782 2.119-0.14641 3.256-8e-3 2.0164-1.7684 2.787-3.397 2.8582-6.1549-0.26453-22.155-2.9315-30.77-3.8271-2.4538-0.72474-3.7624 0.75633-2.1559 2.3349l10.974 9.9527c1.891 1.6081 4.0939 2.4833 6.5328 2.4923l13.329 1.071c3.3701-0.0358 3.602 1.975 3.371 4.2656-0.24148 1.4457-0.51036 2.856-0.86296 4.4739-0.48139 2.4894-1.7468 3.2247-3.8659 3.0147l-59.078-4.0072c-2.1877-0.41788-3.0096 1.1632-1.6998 2.4554l18.961 15.322c1.8576 1.5987 2.8435 1.8043 6.0587 1.8238l29.969-0.4516c3.2258-0.31511 5.5044 0.60659 4.3179 3.9737-11.121 22.827-34.228 40.449-74.032 59.356z" fill="#1f1414" stroke="#000" stroke-width=".28076px"/>
    <path transform="matrix(.86252 0 0 .8535 13.574 40.463)" d="m110.89 234.47c-23.386-31.758-23.092-38.847-5.972-50.638l5.972 8.5443m0 42.093c23.386-31.758 23.092-38.847 5.972-50.638l-5.972 8.5443m0.0598 42.05c-37.431 12.428-44.081 9.9572-50.005-9.9681l9.9716-3.0394m40.033 13.008c-22.977-32.055-29.81-33.966-46.314-21.328l6.2806 8.3201m40.01 12.937c0.25285 39.439-4.152 45.001-24.933 44.477l0.19072-10.423m24.742-34.054c-37.587 11.947-41.515 17.855-34.595 37.456l9.8537-3.4022m24.668-34.054c37.587 11.947 41.515 17.855 34.595 37.456l-9.8537-3.4022m-24.742-34.054c-0.25285 39.439 4.152 45.001 24.933 44.477l-0.19072-10.423m-24.765-33.984c22.977-32.055 29.81-33.966 46.314-21.328l-6.2806 8.3201m-40.033 13.008c37.431 12.428 44.081 9.9572 50.005-9.9681l-9.9716-3.0394" fill="#ffd5d5" stroke="#ffd5d5" stroke-width=".26458px"/>
    <ellipse cx="109.34" cy="241.57" rx="5.8935" ry="5.8935" fill="#ffe680" stroke="#de8787" stroke-width="1.9455"/>
   </g>
   <path transform="translate(-.55307 11.615)" d="m110.1 209.9-0.1636 14.07m3.2458-16.945c0 1.7279-1.4007 3.1286-3.1286 3.1286s-3.1286-1.4007-3.1286-3.1286 1.4007-3.1286 3.1286-3.1286 3.1286 1.4007 3.1286 3.1286zm-22.269 16.665 13.331 4.5034m-15.113-8.3233c1.6433 0.53395 2.5427 2.299 2.0087 3.9423s-2.299 2.5427-3.9423 2.0087c-1.6433-0.53396-2.5427-2.299-2.0087-3.9423 0.53395-1.6433 2.299-2.5427 3.9423-2.0087zm8.9675 26.329 8.4023-11.286m-12.586 11.801c1.0156-1.3979 2.9722-1.7078 4.3701-0.69215 1.3979 1.0156 1.7078 2.9722 0.69216 4.3701-1.0156 1.3979-2.9722 1.7078-4.3701 0.69216s-1.7078-2.9722-0.69216-4.3701zm27.812-0.39246-8.1376-11.479m7.3342 15.617c-1.0156-1.3979-0.70575-3.3545 0.69215-4.3701 1.3979-1.0156 3.3545-0.70575 4.3701 0.69216 1.0156 1.3979 0.70575 3.3545-0.69216 4.3701-1.3979 1.0156-3.3545 0.70575-4.3701-0.69215zm8.221-26.572-13.432 4.1922m17.119-2.1494c-1.6433 0.53395-3.4084-0.36538-3.9423-2.0087-0.53395-1.6433 0.36538-3.4084 2.0087-3.9423 1.6433-0.53395 3.4084 0.36539 3.9423 2.0087 0.53395 1.6433-0.36538 3.4084-2.0087 3.9423z" fill="none" stroke="#de8787" stroke-width="1.6"/>
  </g>
 </g>
</svg>
